<svg id="Ebene_2" data-name="Ebene 2" xmlns="http://www.w3.org/2000/svg" xmlns:xlink="http://www.w3.org/1999/xlink" viewBox="0 0 283.46 99.21"><defs><style>.cls-1{fill:url(#Unbenannter_Verlauf_4);}.cls-2{fill:url(#Unbenannter_Verlauf_4-2);}.cls-3{fill:url(#Unbenannter_Verlauf_4-3);}.cls-4{fill:url(#Unbenannter_Verlauf_4-4);}.cls-5{fill:#16355b;}</style><linearGradient id="Unbenannter_Verlauf_4" x1="-35.89" y1="49.61" x2="87.55" y2="49.61" gradientUnits="userSpaceOnUse"><stop offset="0" stop-color="#84c9f0"/><stop offset="0.01" stop-color="#84c9f0"/><stop offset="0.99" stop-color="#1a365b"/><stop offset="1" stop-color="#1a365b"/></linearGradient><linearGradient id="Unbenannter_Verlauf_4-2" x1="55.36" y1="66.12" x2="44.88" y2="36.04" xlink:href="#Unbenannter_Verlauf_4"/><linearGradient id="Unbenannter_Verlauf_4-3" x1="24.88" y1="74.31" x2="53.59" y2="1.17" xlink:href="#Unbenannter_Verlauf_4"/><linearGradient id="Unbenannter_Verlauf_4-4" x1="75.09" y1="26.11" x2="47.22" y2="87.93" xlink:href="#Unbenannter_Verlauf_4"/></defs><path class="cls-1" d="M49.61,0a49.61,49.61,0,1,0,49.6,49.61A49.61,49.61,0,0,0,49.61,0Zm0,96.51a46.91,46.91,0,1,1,46.9-46.9A47,47,0,0,1,49.61,96.51Z"/><path class="cls-2" d="M46.28,33.21a7.92,7.92,0,0,0-3,3.27,34,34,0,0,0-2,4.08c-.4.91-.77,1.81-1.13,2.74l0,0c1.15,2.92,2.17,5.88,3.24,8.82A92.17,92.17,0,0,0,47,60.78a18.58,18.58,0,0,0,2.28,3.81c.91,1.07,2.24,2.09,3.68,1.42a7.85,7.85,0,0,0,2.94-3.28,33.83,33.83,0,0,0,2-4.09c.4-.91.77-1.7,1.14-2.63-1.16-2.91-2.23-6-3.3-8.95a92,92,0,0,0-3.5-8.62,17.83,17.83,0,0,0-2.3-3.8A3.88,3.88,0,0,0,47.21,33a2.16,2.16,0,0,0-.93.21"/><path class="cls-3" d="M52.2,38.37h0M39.68,27.81c-6.38.38-9.73,6.77-12.06,11.9-1.56,3.41-2.77,7-4.05,10.5-1.05,2.93-2.11,5.87-3.35,8.73a32.9,32.9,0,0,1-2,4,7.12,7.12,0,0,1-3,3l-.35.15h0a6.76,6.76,0,0,0,6.6,5.26h.22c.28,0,.56,0,.84-.07,6.2-.73,9.33-7,11.64-12,.26-.54.48-1.11.71-1.67,2.36-5.74,4.13-11.71,6.62-17.4a33.42,33.42,0,0,1,2-4c.72-1.16,1.67-2.58,3.05-3s2.71.68,3.54,1.75a18.2,18.2,0,0,1,2.06,3.45,26.7,26.7,0,0,0-4.65-7.26,10.4,10.4,0,0,0-7.34-3.32l-.53,0"/><path class="cls-4" d="M47,60.88h0m0,0h0M77.52,27.79l-.83.07c-6.19.73-9.36,7-11.64,12h0c-.24.53-.46,1.06-.68,1.59C62,47.24,60.23,53.21,57.75,58.9a35.82,35.82,0,0,1-2,4.06c-.72,1.17-1.65,2.57-3,3.06s-2.73-.59-3.58-1.66A18.57,18.57,0,0,1,47,60.88a26.42,26.42,0,0,0,4.63,7.22,10.25,10.25,0,0,0,7.88,3.31c6.37-.38,9.74-6.77,12.05-11.9.79-1.68,1.44-3.42,2.09-5.15s1.31-3.57,2-5.36c1.06-2.93,2.11-5.87,3.36-8.73a32.21,32.21,0,0,1,2-4,7.15,7.15,0,0,1,3-3l.34-.14h0a6.78,6.78,0,0,0-6.61-5.27h-.22Z"/><polygon class="cls-5" points="177.13 9.28 177.13 64.69 215.31 64.69 217.45 52.63 189.43 52.63 189.43 42.98 211.44 42.98 213.55 30.99 189.43 30.99 189.43 21.34 215.22 21.34 217.37 9.28 177.13 9.28"/><path class="cls-5" d="M270.58,37A16,16,0,1,1,254.63,21,15.95,15.95,0,0,1,270.58,37m12.88,0a28.83,28.83,0,1,0-28.83,28.83A28.82,28.82,0,0,0,283.46,37"/><polygon class="cls-5" points="150.19 9.28 150.19 30.84 150.21 31.56 150.21 41.62 128.16 9.28 116.8 9.28 116.8 64.69 128.71 64.69 128.71 43.13 128.68 42.21 128.68 32.34 150.74 64.69 162.1 64.69 162.1 9.28 150.19 9.28"/><path class="cls-5" d="M127.66,89.89h-3.3L119,80.64H119c.11,1.63.16,2.8.16,3.49v5.76H116.8V77.66h3.28l5.31,9.16h.06c-.09-1.59-.13-2.71-.13-3.37V77.66h2.34Z"/><path class="cls-5" d="M133.14,89.89V77.66h2.59V89.89Z"/><path class="cls-5" d="M148.24,89.89h-7.05V77.66h7.05v2.12h-4.45v2.69h4.14v2.12h-4.14v3.16h4.45Z"/><path class="cls-5" d="M163.33,83.66a6,6,0,0,1-1.72,4.62,7,7,0,0,1-5,1.61h-3.46V77.66H157a6.44,6.44,0,0,1,4.65,1.58A5.84,5.84,0,0,1,163.33,83.66Zm-2.7.06c0-2.62-1.16-3.94-3.48-3.94h-1.38v8h1.11Q160.63,87.75,160.63,83.72Z"/><path class="cls-5" d="M175.29,89.89h-7V77.66h7v2.12h-4.45v2.69H175v2.12h-4.14v3.16h4.45Z"/><path class="cls-5" d="M182.82,85.2v4.69h-2.59V77.66h3.56a6.15,6.15,0,0,1,3.69.9,3.63,3.63,0,0,1,.61,4.68,4,4,0,0,1-1.69,1.32q2.76,4.13,3.6,5.33h-2.88L184.2,85.2Zm0-2.11h.84a3.21,3.21,0,0,0,1.81-.41,1.48,1.48,0,0,0,.59-1.29,1.35,1.35,0,0,0-.6-1.24,3.59,3.59,0,0,0-1.85-.37h-.79Z"/><path class="cls-5" d="M201.15,86.49A3.14,3.14,0,0,1,200,89.1a5.14,5.14,0,0,1-3.31,1,7.8,7.8,0,0,1-3.47-.74V86.91a14.31,14.31,0,0,0,2.1.78,6.21,6.21,0,0,0,1.57.23,2.22,2.22,0,0,0,1.31-.33,1.12,1.12,0,0,0,.45-1,1,1,0,0,0-.2-.64,2.09,2.09,0,0,0-.59-.54,16.55,16.55,0,0,0-1.58-.83,7.78,7.78,0,0,1-1.69-1,3.87,3.87,0,0,1-.89-1.13,3.51,3.51,0,0,1,.76-4.06,4.59,4.59,0,0,1,3.05-.93,7.26,7.26,0,0,1,1.82.23,13.08,13.08,0,0,1,1.81.63l-.84,2a10.9,10.9,0,0,0-1.62-.56,5.06,5.06,0,0,0-1.26-.16,1.66,1.66,0,0,0-1.13.34,1.14,1.14,0,0,0-.39.9,1.08,1.08,0,0,0,.16.6,1.67,1.67,0,0,0,.5.49,15.4,15.4,0,0,0,1.65.86,6.44,6.44,0,0,1,2.35,1.64A3.25,3.25,0,0,1,201.15,86.49Z"/><path class="cls-5" d="M213.25,89.89,212.37,87h-4.46L207,89.89h-2.8l4.32-12.28h3.17l4.34,12.28Zm-1.5-5.09c-.82-2.64-1.28-4.13-1.39-4.47s-.18-.62-.22-.82c-.18.71-.71,2.48-1.58,5.29Z"/><path class="cls-5" d="M225.19,79.64a2.64,2.64,0,0,0-2.27,1.1,5.09,5.09,0,0,0-.81,3.07q0,4.09,3.08,4.09a9.76,9.76,0,0,0,3.12-.65v2.18a8.69,8.69,0,0,1-3.37.63,5.12,5.12,0,0,1-4.08-1.62,6.88,6.88,0,0,1-1.42-4.65,7.6,7.6,0,0,1,.7-3.34,5,5,0,0,1,2-2.2,5.94,5.94,0,0,1,3.06-.77,8.32,8.32,0,0,1,3.58.86l-.84,2.11a13.41,13.41,0,0,0-1.38-.57A4.15,4.15,0,0,0,225.19,79.64Z"/><path class="cls-5" d="M243.32,89.89h-2.59V84.61h-4.84v5.28h-2.6V77.66h2.6v4.79h4.84V77.66h2.59Z"/><path class="cls-5" d="M256,86.49a3.16,3.16,0,0,1-1.19,2.61,5.17,5.17,0,0,1-3.32,1,7.76,7.76,0,0,1-3.46-.74V86.91a13.84,13.84,0,0,0,2.09.78,6.27,6.27,0,0,0,1.57.23,2.2,2.2,0,0,0,1.31-.33,1.13,1.13,0,0,0,.46-1,1.1,1.1,0,0,0-.2-.64,2.23,2.23,0,0,0-.59-.54,15.86,15.86,0,0,0-1.59-.83,7.44,7.44,0,0,1-1.68-1,3.91,3.91,0,0,1-.9-1.13,3.26,3.26,0,0,1-.33-1.51,3.14,3.14,0,0,1,1.1-2.55,4.56,4.56,0,0,1,3-.93,7.2,7.2,0,0,1,1.82.23,12.64,12.64,0,0,1,1.81.63l-.83,2a11.74,11.74,0,0,0-1.62-.56,5.06,5.06,0,0,0-1.26-.16,1.66,1.66,0,0,0-1.13.34,1.12,1.12,0,0,0-.4.9,1.17,1.17,0,0,0,.16.6,1.85,1.85,0,0,0,.51.49,14.88,14.88,0,0,0,1.64.86,6.36,6.36,0,0,1,2.35,1.64A3.19,3.19,0,0,1,256,86.49Z"/><path class="cls-5" d="M267.67,89.89h-7V77.66h7v2.12h-4.45v2.69h4.15v2.12h-4.15v3.16h4.45Z"/><path class="cls-5" d="M283.46,89.89h-3.29l-5.33-9.25h-.07c.11,1.63.16,2.8.16,3.49v5.76h-2.32V77.66h3.27l5.32,9.16h.06c-.09-1.59-.13-2.71-.13-3.37V77.66h2.33Z"/></svg>